<?xml version="1.0" standalone="no"?>
<!DOCTYPE svg PUBLIC "-//W3C//DTD SVG 20010904//EN"
 "http://www.w3.org/TR/2001/REC-SVG-20010904/DTD/svg10.dtd">
<svg version="1.0" xmlns="http://www.w3.org/2000/svg"
 width="260.000000pt" height="260.000000pt" viewBox="0 0 260.000000 260.000000"
 preserveAspectRatio="xMidYMid meet">
<metadata>
Created by potrace 1.14, written by Peter Selinger 2001-2017
</metadata>
<g transform="translate(0.000000,260.000000) scale(0.100000,-0.100000)"
fill="#000000" stroke="none">
<path d="M47 2553 c-4 -3 -7 -505 -7 -1115 l0 -1108 425 0 425 0 0 -132 c0
-73 4 -139 8 -146 7 -10 180 -12 833 -10 l824 3 3 1113 2 1112 -425 0 -425 0
0 129 c0 71 -3 136 -6 145 -6 14 -88 16 -828 16 -453 0 -826 -3 -829 -7z
m1621 -818 c2 -429 0 -912 -4 -1072 l-6 -293 -789 0 -789 0 0 1075 0 1075 793
-2 792 -3 3 -780z m850 405 c-3 -80 -6 -92 -28 -114 -28 -28 -727 -346 -760
-346 -20 0 -20 5 -20 275 l0 275 406 0 406 0 -4 -90z m2 -1110 l0 -950 -790 0
-790 0 0 120 0 120 55 0 55 0 0 -47 c0 -27 4 -54 8 -61 7 -10 148 -12 673 -10
l664 3 3 336 c2 290 0 338 -13 349 -21 18 -21 152 0 170 12 10 15 37 15 122 0
87 -3 110 -15 114 -10 4 -15 20 -15 44 0 24 5 40 15 44 13 5 15 44 15 274 l0
268 53 26 c28 14 55 26 60 26 4 1 7 -425 7 -948z"/>
<path d="M302 2345 c-71 -31 -76 -134 -8 -176 30 -18 53 -19 589 -17 l559 3
29 33 c39 44 39 90 0 134 l-29 33 -554 2 c-464 2 -558 0 -586 -12z"/>
<path d="M475 1976 c-37 -16 -92 -77 -101 -112 -4 -14 -4 -49 -2 -79 8 -94 79
-157 178 -157 100 0 180 80 180 180 0 43 -28 109 -56 134 -51 45 -140 60 -199
34z"/>
<path d="M1020 1970 c0 -20 5 -20 237 -18 217 3 238 5 241 21 3 16 -13 17
-237 17 -235 0 -241 0 -241 -20z"/>
<path d="M1027 1784 c-4 -4 -7 -13 -7 -21 0 -10 47 -13 241 -13 224 0 240 1
237 18 -3 15 -23 17 -234 20 -127 1 -233 -1 -237 -4z"/>
<path d="M469 1580 c-62 -11 -120 -42 -157 -85 -57 -64 -65 -95 -66 -250 l-1
-140 303 -3 302 -2 0 133 c0 95 -5 147 -16 180 -19 56 -81 122 -137 147 -50
22 -164 32 -228 20z"/>
<path d="M1022 1563 c3 -17 22 -18 238 -18 216 0 235 1 238 18 3 16 -13 17
-238 17 -225 0 -241 -1 -238 -17z"/>
<path d="M1020 1360 c0 -20 5 -21 98 -18 78 2 97 6 97 18 0 12 -19 16 -97 18
-93 3 -98 2 -98 -18z"/>
<path d="M1027 1134 c-4 -4 -7 -13 -7 -21 0 -10 47 -13 241 -13 224 0 240 1
237 18 -3 15 -23 17 -234 20 -127 1 -233 -1 -237 -4z"/>
<path d="M244 796 c-3 -7 -4 -33 -2 -57 l3 -44 240 0 240 0 3 58 3 57 -241 0
c-196 0 -242 -3 -246 -14z m446 -46 c0 -19 -7 -20 -200 -20 -193 0 -200 1
-200 20 0 19 7 20 200 20 193 0 200 -1 200 -20z"/>
<path d="M1016 794 c-9 -22 -7 -77 2 -92 7 -9 62 -12 243 -10 l234 3 3 58 3
57 -239 0 c-210 0 -241 -2 -246 -16z m444 -44 c0 -19 -7 -20 -200 -20 -193 0
-200 1 -200 20 0 19 7 20 200 20 193 0 200 -1 200 -20z"/>
<path d="M245 560 c-3 -5 -3 -14 0 -20 4 -6 225 -10 631 -10 617 0 624 0 624
20 0 20 -7 20 -624 20 -406 0 -627 -4 -631 -10z"/>
</g>
</svg>
